<?xml version="1.0" standalone="no"?>
<!DOCTYPE svg PUBLIC "-//W3C//DTD SVG 20010904//EN"
 "http://www.w3.org/TR/2001/REC-SVG-20010904/DTD/svg10.dtd">
<svg version="1.0" xmlns="http://www.w3.org/2000/svg"
 width="220.000000pt" height="220.000000pt" viewBox="0 0 220.000000 220.000000"
 preserveAspectRatio="xMidYMid meet">

<g transform="translate(0.000000,220.000000) scale(0.100000,-0.100000)"
fill="#000000" stroke="none">
<path d="M792 2125 l-29 -24 -52 19 c-62 24 -119 26 -149 4 -51 -36 -71 -136
-36 -189 23 -35 31 -32 45 18 24 85 65 97 133 37 66 -58 117 -181 181 -437 39
-158 42 -198 19 -231 -35 -50 -59 -22 -123 139 -30 75 -52 149 -57 187 -8 74
-30 108 -62 98 -32 -10 -51 -54 -73 -167 -29 -152 -26 -247 17 -420 l35 -147
-36 -133 c-20 -74 -51 -168 -70 -209 -53 -119 -62 -162 -42 -205 9 -19 23 -35
31 -35 24 0 52 45 72 115 10 36 24 65 29 65 6 0 17 -24 24 -52 32 -126 105
-239 186 -287 31 -18 34 -18 37 -3 3 13 9 9 25 -16 20 -32 21 -32 27 -10 5 21
9 18 42 -34 21 -31 48 -61 61 -67 22 -10 23 -10 12 12 -7 12 -21 35 -31 50
-17 24 -18 30 -6 44 10 12 10 17 1 20 -21 7 -63 44 -74 65 -10 18 -6 17 35 -7
25 -15 46 -23 46 -17 0 13 -46 80 -79 116 l-26 28 35 -17 c30 -15 22 -4 -46
66 -86 90 -144 180 -144 224 0 17 -9 34 -25 47 -29 23 -68 94 -61 111 3 8 5 6
6 -3 0 -8 7 -1 14 15 l13 30 17 -54 c9 -30 16 -61 16 -68 0 -7 9 -13 20 -13
11 0 20 5 20 11 0 7 9 0 20 -13 14 -19 26 -24 45 -21 22 5 25 2 25 -21 0 -26
14 -33 38 -17 23 14 -7 127 -39 147 -6 3 -22 1 -35 -6 -19 -11 -26 -11 -40 1
-25 21 -74 132 -63 145 5 6 -11 60 -41 135 -65 165 -84 238 -83 329 0 81 24
150 65 187 20 18 21 18 15 -2 -29 -102 -33 -294 -8 -377 17 -56 70 -119 128
-153 l51 -30 -1 -80 c-1 -89 7 -125 29 -125 14 0 18 21 14 68 -1 19 3 23 22
20 19 -2 23 -8 21 -37 -2 -43 18 -60 68 -61 38 0 103 -39 67 -40 -11 0 -15 -5
-12 -15 7 -18 4 -18 -30 -5 -22 8 -26 7 -26 -9 0 -13 11 -23 34 -31 19 -6 37
-18 40 -27 9 -23 121 -10 159 18 19 14 38 19 55 16 35 -7 51 1 46 21 -2 9 5
28 15 42 l20 25 35 -19 c20 -11 36 -22 36 -26 0 -4 -12 -16 -27 -26 l-28 -17
50 -18 50 -17 -37 -1 c-46 -1 -48 -11 -8 -45 35 -29 108 -53 188 -63 61 -7 71
-16 45 -45 -11 -13 -14 -22 -7 -25 6 -2 20 -10 30 -18 19 -13 19 -14 -1 -20
-11 -3 -78 -29 -150 -58 -107 -42 -143 -52 -213 -57 -94 -6 -122 2 -69 19 21
7 34 17 31 24 -2 7 9 18 26 25 16 8 30 18 30 24 0 7 -5 6 -14 -1 -21 -17 -51
32 -36 59 7 12 7 20 1 20 -5 0 -13 -10 -17 -22 -3 -13 -24 -42 -44 -64 -21
-23 -46 -56 -54 -73 -16 -31 -17 -31 -46 -16 -16 8 -45 15 -65 15 -33 0 -35
-2 -25 -21 8 -15 8 -24 0 -34 -9 -11 -5 -17 19 -29 41 -22 51 -20 51 9 0 24 0
24 45 10 52 -15 95 -41 95 -55 0 -6 -18 -10 -39 -10 -22 0 -42 -4 -46 -9 -3
-6 9 -27 27 -48 l32 -38 -30 27 c-23 21 -33 25 -42 16 -8 -8 -22 -3 -54 24
-65 52 -70 54 -56 21 18 -43 37 -61 47 -45 5 9 21 -3 55 -43 26 -30 40 -52 31
-49 -31 12 31 -94 65 -111 38 -20 38 -21 42 130 5 149 17 176 91 210 29 13
106 37 172 54 101 25 138 30 230 28 95 -1 116 2 152 21 44 23 80 62 89 97 9
35 -14 102 -48 141 -34 39 -99 84 -120 84 -7 0 -5 -5 6 -11 15 -9 16 -13 5
-20 -12 -8 -12 -10 -1 -18 10 -6 6 -11 -16 -19 -25 -8 -33 -7 -43 4 -7 9 -25
14 -45 12 -25 -2 -41 6 -72 34 -67 61 -98 73 -184 73 -69 -1 -78 2 -78 18 0
33 -29 88 -111 209 -88 131 -80 143 17 26 33 -40 89 -96 125 -125 65 -53 181
-117 200 -111 10 3 -51 64 -207 204 -48 43 -91 92 -108 124 -25 46 -28 58 -22
111 3 32 9 85 12 117 6 68 -42 333 -75 407 -17 38 -25 46 -43 43 -21 -3 -24
-10 -31 -83 -4 -44 -10 -100 -13 -125 -6 -44 -6 -44 -20 -20 -7 14 -32 81 -55
150 -50 149 -78 208 -125 259 -64 72 -131 89 -182 46z m122 -105 c20 -18 44
-56 60 -93 28 -69 80 -280 73 -299 -3 -11 -217 400 -217 417 0 17 55 0 84 -25z
m-33 -142 c10 -21 19 -45 19 -55 0 -32 -48 28 -71 87 l-21 55 27 -25 c15 -14
36 -42 46 -62z m69 -184 c7 -20 9 -38 6 -42 -12 -12 -37 25 -43 64 -6 35 -5
38 10 26 9 -8 21 -29 27 -48z m288 -78 c-3 -53 -9 -71 -27 -89 l-23 -22 6 78
c6 85 21 126 38 109 6 -6 9 -39 6 -76z m-98 -63 c0 -25 0 -26 -20 -8 -11 10
-20 22 -20 27 0 4 9 8 20 8 15 0 20 -7 20 -27z m-126 -49 c10 -27 7 -44 -9
-44 -10 0 -15 10 -15 30 0 32 14 40 24 14z m-270 -31 c47 -71 74 -193 60 -268
-9 -50 -27 -39 -41 26 -47 211 -59 279 -52 279 5 0 20 -17 33 -37z m481 -42
c3 -5 1 -12 -5 -16 -5 -3 -10 1 -10 9 0 18 6 21 15 7z m81 -28 c-14 -79 -18
-93 -28 -93 -10 0 -8 22 8 103 9 43 27 33 20 -10z m-129 -27 c-4 -9 -16 -16
-27 -16 -24 0 -25 8 -3 32 19 21 40 9 30 -16z m-132 -7 c11 -17 -1 -21 -15 -4
-8 9 -8 15 -2 15 6 0 14 -5 17 -11z m15 -98 c0 -17 5 -33 11 -36 5 -4 9 -17 7
-30 -2 -15 7 -31 30 -50 47 -39 43 -59 -10 -51 -23 4 -50 14 -60 23 -17 15
-18 14 -18 -10 0 -24 4 -27 37 -27 36 0 36 0 18 -20 -24 -27 -18 -31 30 -20
113 26 182 -3 209 -87 11 -36 -29 -30 -65 9 -16 18 -29 27 -29 20 0 -7 -14
-12 -32 -12 -18 -1 -58 -12 -88 -25 l-55 -23 -3 21 c-4 23 -30 57 -44 57 -4 0
-8 -9 -8 -20 0 -11 -4 -20 -9 -20 -14 0 5 59 25 81 10 11 15 21 13 23 -12 10
-78 13 -88 3 -26 -26 1 44 37 96 24 36 25 40 9 48 -25 14 -21 36 8 43 14 4 28
13 31 21 4 8 15 15 25 15 14 0 19 -7 19 -29z m-120 -70 c0 -20 -13 -41 -25
-41 -15 0 -28 27 -19 41 7 12 44 12 44 0z m405 -311 c-20 -32 -195 -80 -195
-54 0 5 39 21 88 36 98 29 116 32 107 18z m220 -74 c46 -20 44 -33 -6 -38 -36
-3 -42 -1 -55 24 -14 26 -13 28 6 28 11 0 36 -7 55 -14z m-912 -106 c3 -11 1
-20 -4 -20 -5 0 -9 9 -9 20 0 11 2 20 4 20 2 0 6 -9 9 -20z m47 -15 c0 -8 16
-32 35 -53 l34 -39 -19 -39 c-25 -48 -25 -64 0 -64 13 0 27 -15 44 -47 13 -27
38 -60 55 -76 32 -28 40 -47 20 -47 -6 0 -9 -7 -5 -15 7 -19 2 -19 -33 -1 -36
19 -105 95 -129 143 -41 79 -66 203 -42 203 6 0 10 8 10 18 0 10 3 22 7 25 11
12 23 8 23 -8z m1171 -2 c52 -19 59 -31 32 -55 -27 -23 -59 -30 -103 -23 -28
5 -37 11 -33 21 3 8 0 20 -6 28 -9 11 -8 18 4 30 21 21 45 20 106 -1z m89
-123 c0 -16 -57 -40 -97 -40 -63 0 -113 12 -113 26 0 10 23 14 88 17 48 1 95
4 105 5 9 1 17 -2 17 -8z m-1099 -128 c5 -12 4 -22 -1 -22 -11 0 -50 49 -50
63 0 16 43 -18 51 -41z"/>
<path d="M785 390 c3 -5 8 -10 11 -10 2 0 4 5 4 10 0 6 -5 10 -11 10 -5 0 -7
-4 -4 -10z"/>
<path d="M1694 881 c8 -12 49 -35 92 -52 24 -9 26 -8 14 6 -23 28 -120 70
-106 46z"/>
<path d="M805 707 c29 -80 29 -78 10 -70 -13 4 -11 -2 5 -29 22 -38 70 -87 70
-72 0 20 -72 191 -90 214 -18 22 -17 18 5 -43z"/>
<path d="M1030 741 c0 -18 37 -54 48 -47 20 12 13 36 -14 46 -31 12 -34 12
-34 1z"/>
<path d="M1214 730 c-12 -5 -25 -13 -29 -19 -8 -13 -11 -14 53 3 29 8 68 12
86 9 20 -3 36 -1 40 6 9 13 -117 14 -150 1z"/>
<path d="M1345 621 c-19 -8 -18 -9 8 -22 25 -11 30 -10 50 9 l21 22 -29 -1
c-17 0 -39 -4 -50 -8z"/>
<path d="M1474 560 c-49 -24 -103 -76 -69 -67 11 4 59 16 108 28 48 12 87 25
87 30 0 12 -35 29 -62 29 -13 0 -41 -9 -64 -20z"/>
<path d="M636 435 c6 -44 31 -92 51 -99 8 -3 1 19 -16 52 -15 31 -31 64 -35
72 -3 8 -3 -3 0 -25z"/>
<path d="M924 185 c22 -17 40 -20 32 -6 -3 5 -16 11 -28 14 -22 6 -22 5 -4 -8z"/>
<path d="M1060 182 c0 -7 31 -62 35 -62 3 0 5 15 5 34 0 29 -4 34 -20 33 -11
-1 -20 -3 -20 -5z"/>
<path d="M1140 136 c0 -2 8 -10 18 -17 15 -13 16 -12 3 4 -13 16 -21 21 -21
13z"/>
</g>
</svg>
